<svg xmlns="http://www.w3.org/2000/svg" viewBox="0 0 1600 900" role="img" aria-labelledby="title desc">
  <title id="title">Abstract touch rugby pitch</title>
  <desc id="desc">A stylised rugby pitch with floodlights and orange motion lines.</desc>
  <defs>
    <linearGradient id="sky" x1="0" x2="1" y1="0" y2="1">
      <stop offset="0" stop-color="#000b18"/>
      <stop offset="0.48" stop-color="#001d3d"/>
      <stop offset="1" stop-color="#003566"/>
    </linearGradient>
    <radialGradient id="light" cx="50%" cy="50%" r="50%">
      <stop offset="0" stop-color="#fff" stop-opacity="0.95"/>
      <stop offset="0.2" stop-color="#d9edff" stop-opacity="0.52"/>
      <stop offset="0.72" stop-color="#d9edff" stop-opacity="0"/>
    </radialGradient>
    <linearGradient id="grass" x1="0" x2="0" y1="0" y2="1">
      <stop offset="0" stop-color="#164a37"/>
      <stop offset="1" stop-color="#071d16"/>
    </linearGradient>
  </defs>
  <rect width="1600" height="900" fill="url(#sky)"/>
  <g opacity="0.9">
    <circle cx="220" cy="210" r="210" fill="url(#light)"/>
    <circle cx="1380" cy="210" r="210" fill="url(#light)"/>
    <path d="M220 210 0 650M220 210 520 640M1380 210 1600 650M1380 210 1080 640" stroke="#d9edff" stroke-opacity="0.18" stroke-width="5"/>
  </g>
  <path d="M0 618 C360 560 1240 560 1600 618 L1600 900 L0 900 Z" fill="url(#grass)"/>
  <g fill="none" stroke="#ffffff" stroke-opacity="0.28" stroke-width="5">
    <path d="M170 805 C470 685 1130 685 1430 805"/>
    <path d="M0 710 C360 630 1240 630 1600 710"/>
    <path d="M800 610 V900"/>
    <ellipse cx="800" cy="735" rx="115" ry="36"/>
  </g>
  <g opacity="0.95">
    <path d="M420 540 C590 440 760 430 930 506 C870 590 680 650 500 636 C435 631 390 590 420 540Z" fill="#ff6b00" opacity="0.95"/>
    <path d="M461 547 C612 475 755 467 891 517 C816 572 685 616 535 604 C481 599 441 577 461 547Z" fill="#001d3d" opacity="0.88"/>
    <path d="M520 550 C645 511 741 509 838 531" stroke="#ffffff" stroke-opacity="0.82" stroke-width="10" stroke-linecap="round"/>
    <path d="M650 523 678 578M720 520 743 567" stroke="#ffffff" stroke-opacity="0.82" stroke-width="8" stroke-linecap="round"/>
  </g>
  <g stroke="#ff6b00" stroke-width="8" stroke-linecap="round" opacity="0.65">
    <path d="M1040 445 C1145 390 1265 382 1395 420"/>
    <path d="M1038 490 C1165 440 1280 445 1450 515"/>
    <path d="M960 408 C1090 320 1240 292 1470 330"/>
  </g>
  <g opacity="0.28">
    <circle cx="232" cy="765" r="3" fill="#fff"/><circle cx="292" cy="712" r="3" fill="#fff"/><circle cx="1220" cy="782" r="3" fill="#fff"/><circle cx="1355" cy="728" r="3" fill="#fff"/>
    <circle cx="1110" cy="665" r="2" fill="#fff"/><circle cx="470" cy="705" r="2" fill="#fff"/>
  </g>
</svg>
